<?xml version="1.0" encoding="utf-8"?>
<!-- Generator: Adobe Illustrator 22.0.1, SVG Export Plug-In . SVG Version: 6.00 Build 0)  -->
<svg version="1.1" id="Layer_1" xmlns="http://www.w3.org/2000/svg" xmlns:xlink="http://www.w3.org/1999/xlink" x="0px" y="0px"
	 viewBox="0 0 505 83" style="enable-background:new 0 0 505 83;" xml:space="preserve">
<style type="text/css">
	.st0{fill:#E5272F;}
	.st1{fill:#E5222B;}
	.st2{fill:none;}
	.st3{fill:#939598;}
	.st4{font-family:'Arial-BoldMT';}
	.st5{font-size:52px;}
</style>
<g>
	<path class="st0" d="M330.4,40.5c0-11.8,0.1-23.6-0.1-35.4c-0.1-3.7,0.8-4.9,4.7-4.7c7,0.3,7,0,7,7.2c0,22.8-0.2,45.6,0.1,68.4
		c0.1,4.9-2.2,4.9-5.6,4.7c-3.3-0.1-6.4,0.9-6.2-4.7C330.7,64.2,330.4,52.3,330.4,40.5z"/>
	<path class="st1" d="M387.1,74.4c0,6.7,0,6.7-6.4,5c-20.6-5.6-33.9-21.8-35.5-43.3c-0.7-10.3-1.2-20.6-0.9-30.9
		c0.1-2.1-1.1-4.7,3-4.8c3.9-0.1,3.2,2.2,3.3,4.5c0.4,10.6,0.5,21.3,3.4,31.7c4.4,15.7,13.7,26.9,29.9,31.3
		C388.3,69,386.8,71.8,387.1,74.4z"/>
	<path class="st1" d="M328.1,18.7c-0.1,7-0.4,15.6-1.8,24.2c-3,18.3-19.3,34.3-37.8,37.3c-2.1,0.3-3.3,0.2-3-2.3
		c0.1-0.7,0.1-1.4,0-2c-1.1-5.3,1.2-7.4,6.3-9.2c17.6-6.3,25.5-20.4,28.2-37.9c1.3-8.2,1.8-16.5,1.8-24.9c0-2.4,0.4-3.5,3.2-3.6
		c3,0,3.1,1.5,3,3.7C328,8.4,328.1,12.7,328.1,18.7z"/>
	<path class="st0" d="M490.4,80.1c-4.7,1.3-7.4,0-9.2-3.7c-1.4-2.6-3.3-5-4.9-7.5c-2.2-3.4-2.3-6.2,2-8c1.7-0.7,3.2-1.8,4.1-3.5
		c1.1-2.1,1-4.2-0.4-6.1c-1.9-2.6-4.8-2-7.4-1.7c-2.7,0.4-1.6,2.9-1.6,4.5c-0.1,7.7-0.1,15.3,0,23c0,2,0.1,3.5-2.7,3.5
		c-2.9,0.1-3.2-1.3-3.2-3.6c0.1-9,0.1-18,0-27c0-4.4,2.1-6.4,6.4-6.3c3.2,0.1,6.4-0.3,9.3,1.1c6.9,3.2,8.3,13.9,2.1,18.4
		c-3.8,2.7-3.1,4.6-0.9,7.5C486.1,73.6,488,76.7,490.4,80.1z"/>
	<path class="st1" d="M463.9,80c-4.4,1.6-6.6,0.1-7.1-4.1c-0.4-3.6-2.3-4.9-6-4.6c-3.5,0.3-7.5-0.9-8,4.7c-0.3,3.9-2.5,5.4-7,4
		c3.3-11,6.5-22,9.8-33c0.6-2,2.1-3.1,4-3.2c2.2-0.1,3.8,1.2,4.4,3.3C457.4,58.1,460.7,69,463.9,80z M449.8,52.6
		c-1.4,4.7-2.3,8.1-3.4,11.4c-0.4,1.2-0.3,2,1.1,2c1.8,0,3.9,0.5,5.3-0.3c1.8-1.1-0.1-2.9-0.4-4.4C452.1,58.9,451.1,56.5,449.8,52.6
		z"/>
	<path class="st1" d="M422.7,80c-4.5,1.6-6.7,0-7.1-4.2c-0.4-4.3-3-4.7-6.5-4.5s-7.1-0.6-7.5,4.7c-0.3,4.3-2.8,5.6-7,4
		c3.1-10.6,6.3-21.2,9.3-31.9c0.7-2.4,1.9-4.4,4.7-4.3c2.8,0,4,2.1,4.7,4.4C416.5,58.7,419.5,69.2,422.7,80z M408.6,52.7
		c-1.3,4.2-2.1,7.1-3.1,10c-0.9,2.5-0.6,3.4,2.4,3.5c3.7,0.1,5.2-0.6,3.6-4.5C410.5,59.3,409.8,56.6,408.6,52.7z"/>
	<path class="st1" d="M426.2,64.5c0-2.8-0.1-5.7,0-8.5c0.2-4.1,0.3-7.9-5.7-6.6c-1.9,0.4-2.1-1-2-2.5c0.1-1.4-0.3-3.2,2-3.2
		c5.7,0,11.4,0,17.1,0c2.4,0,1.9,1.7,2,3.2s-0.2,2.9-2.1,2.5c-6.3-1.3-5.9,2.7-5.8,6.9c0.2,7,0,14,0.1,21c0,2.2-0.3,3.3-2.9,3.3
		c-2.4-0.1-2.6-1.2-2.6-3.1C426.3,73.2,426.2,68.8,426.2,64.5z"/>
	<path class="st0" d="M493.6,61.9c0-5,0.1-10,0-14.9c0-2.2,0.4-3.3,3-3.3c2.5,0,3,1.1,3,3.3c-0.1,10.1-0.1,20.2,0,30.4
		c0,2.3-0.6,3.2-3.1,3.2s-3-1-3-3.2C493.7,72.2,493.6,67.1,493.6,61.9z"/>
</g>
<rect x="-5" class="st2" width="284.9" height="100"/>
<text transform="matrix(1.0051 0 0 1 166.6206 37.2314)" class="st3 st4 st5">Best</text>
<text transform="matrix(1.0051 0 0 1 -1.834 80.2314)" class="st3 st4 st5">Electronics</text>
</svg>
